# xmcd
#
# Track frame offsets:
#  150
#  15967
#  30612
#  46307
#  67857
#  82300
#  97245
#  112837
#  130472
#  156540
#  172730
#  193185
#  210492
#  227855
#
# Disc length: 3282 seconds
#
# Revision: 0
# Processed by: cddbd v1.5.1PL2 Copyright (c) Steve Scherf et al.
# Submitted via: Collectorz.com_Music_Collector 6.11
#
DISCID=b90cd00e
DTITLE=Not All There - Not All There
DYEAR=1995
DGENRE=Blues
TTITLE0=FEEL so BAD
TTITLE1=bUZZ mE
TTITLE2=Rocket 88 (w/ James Harman)
TTITLE3=Miss Blues's Child
TTITLE4=Breakin' Up Somebody's Home
TTITLE5=Nadine
TTITLE6=Little Ol' Letter
TTITLE7=Temperature (w/ Charlie Musselwhite)
TTITLE8=Wang Dang Doodle
TTITLE9=Talk To Your Daughter (w/ Magic Slim)
TTITLE10=Cadillac Blues
TTITLE11=Walking Blues
TTITLE12=All Your Love
TTITLE13=Born With The Blues
EXTD=
EXTT0=
EXTT1=
EXTT2=
EXTT3=
EXTT4=
EXTT5=
EXTT6=
EXTT7=
EXTT8=
EXTT9=
EXTT10=
EXTT11=
EXTT12=
EXTT13=
PLAYORDER=
